<svg width="1440" height="900" viewBox="0 0 1440 900" fill="none" xmlns="http://www.w3.org/2000/svg">
<rect width="1440" height="900" fill="#F2F5F7"/>
<rect x="28" y="24" width="1384" height="852" rx="32" fill="#FBFCFD"/>
<rect x="68" y="64" width="1304" height="104" rx="28" fill="#FFFFFF" stroke="#DCE4EA"/>
<text x="104" y="108" fill="#708090" font-family="Trebuchet MS, Segoe UI, sans-serif" font-size="17" letter-spacing="3">CONTROLE TECNICO</text>
<text x="104" y="142" fill="#142033" font-family="Trebuchet MS, Segoe UI, sans-serif" font-size="44" font-weight="700">Uniformes e movimentacoes</text>
<rect x="1122" y="88" width="210" height="56" rx="18" fill="#1F5F6B"/>
<text x="1164" y="123" fill="#F7FBFC" font-family="Trebuchet MS, Segoe UI, sans-serif" font-size="20" font-weight="700">Registrar</text>
<rect x="68" y="196" width="302" height="128" rx="24" fill="#FFFFFF" stroke="#DCE4EA"/>
<rect x="390" y="196" width="302" height="128" rx="24" fill="#FFFFFF" stroke="#DCE4EA"/>
<rect x="712" y="196" width="302" height="128" rx="24" fill="#FFFFFF" stroke="#DCE4EA"/>
<rect x="1034" y="196" width="338" height="128" rx="24" fill="#FFFFFF" stroke="#DCE4EA"/>
<text x="100" y="236" fill="#7A8796" font-family="Trebuchet MS, Segoe UI, sans-serif" font-size="18">Pecas em estoque</text>
<text x="100" y="292" fill="#142033" font-family="Trebuchet MS, Segoe UI, sans-serif" font-size="52" font-weight="700">81</text>
<text x="422" y="236" fill="#7A8796" font-family="Trebuchet MS, Segoe UI, sans-serif" font-size="18">Funcionarios</text>
<text x="422" y="292" fill="#142033" font-family="Trebuchet MS, Segoe UI, sans-serif" font-size="52" font-weight="700">17</text>
<text x="744" y="236" fill="#7A8796" font-family="Trebuchet MS, Segoe UI, sans-serif" font-size="18">Movimentacoes</text>
<text x="744" y="292" fill="#142033" font-family="Trebuchet MS, Segoe UI, sans-serif" font-size="52" font-weight="700">37</text>
<text x="1066" y="236" fill="#7A8796" font-family="Trebuchet MS, Segoe UI, sans-serif" font-size="18">Descartes</text>
<text x="1066" y="292" fill="#B45309" font-family="Trebuchet MS, Segoe UI, sans-serif" font-size="52" font-weight="700">5</text>
<rect x="68" y="356" width="790" height="484" rx="28" fill="#FFFFFF" stroke="#DCE4EA"/>
<text x="104" y="404" fill="#7A8796" font-family="Trebuchet MS, Segoe UI, sans-serif" font-size="16" letter-spacing="3">ESTOQUE</text>
<text x="104" y="438" fill="#142033" font-family="Trebuchet MS, Segoe UI, sans-serif" font-size="30" font-weight="700">Visao agrupada</text>
<rect x="104" y="470" width="718" height="74" rx="20" fill="#F5F8FA"/>
<text x="132" y="516" fill="#142033" font-family="Trebuchet MS, Segoe UI, sans-serif" font-size="28" font-weight="700">Calca</text>
<text x="608" y="516" fill="#6C7A89" font-family="Trebuchet MS, Segoe UI, sans-serif" font-size="22">Total: 40</text>
<text x="742" y="516" fill="#1F5F6B" font-family="Trebuchet MS, Segoe UI, sans-serif" font-size="20" font-weight="700">Expandir</text>
<rect x="104" y="562" width="718" height="74" rx="20" fill="#1F5F6B"/>
<text x="132" y="608" fill="#F7FBFC" font-family="Trebuchet MS, Segoe UI, sans-serif" font-size="28" font-weight="700">Camiseta Manga Curta</text>
<text x="550" y="608" fill="#C7DCE0" font-family="Trebuchet MS, Segoe UI, sans-serif" font-size="22">Total: 24</text>
<text x="734" y="608" fill="#F7FBFC" font-family="Trebuchet MS, Segoe UI, sans-serif" font-size="20" font-weight="700">Aberto</text>
<rect x="124" y="654" width="678" height="56" rx="16" fill="#FAFBFC" stroke="#E1E8EE"/>
<text x="150" y="689" fill="#142033" font-family="Trebuchet MS, Segoe UI, sans-serif" font-size="24" font-weight="700">P</text>
<text x="214" y="689" fill="#6C7A89" font-family="Trebuchet MS, Segoe UI, sans-serif" font-size="21">Estoque: 6</text>
<rect x="570" y="671" width="104" height="24" rx="12" fill="#FEF3C7"/>
<text x="599" y="688" fill="#92400E" font-family="Trebuchet MS, Segoe UI, sans-serif" font-size="13" font-weight="700">Baixo</text>
<rect x="124" y="722" width="678" height="56" rx="16" fill="#FAFBFC" stroke="#E1E8EE"/>
<text x="150" y="757" fill="#142033" font-family="Trebuchet MS, Segoe UI, sans-serif" font-size="24" font-weight="700">M</text>
<text x="214" y="757" fill="#6C7A89" font-family="Trebuchet MS, Segoe UI, sans-serif" font-size="21">Estoque: 8</text>
<rect x="570" y="739" width="126" height="24" rx="12" fill="#DCFCE7"/>
<text x="592" y="756" fill="#166534" font-family="Trebuchet MS, Segoe UI, sans-serif" font-size="13" font-weight="700">Saudavel</text>
<rect x="884" y="356" width="488" height="484" rx="28" fill="#FFFFFF" stroke="#DCE4EA"/>
<text x="920" y="404" fill="#7A8796" font-family="Trebuchet MS, Segoe UI, sans-serif" font-size="16" letter-spacing="3">EQUIPE</text>
<text x="920" y="438" fill="#142033" font-family="Trebuchet MS, Segoe UI, sans-serif" font-size="30" font-weight="700">Funcionarios</text>
<rect x="920" y="472" width="416" height="70" rx="18" fill="#F5F8FA"/>
<text x="948" y="515" fill="#142033" font-family="Trebuchet MS, Segoe UI, sans-serif" font-size="23" font-weight="700">AMAURI L. O. CAMPOS</text>
<text x="1196" y="515" fill="#6C7A89" font-family="Trebuchet MS, Segoe UI, sans-serif" font-size="17">GERENCIA</text>
<rect x="920" y="560" width="416" height="70" rx="18" fill="#F5F8FA"/>
<text x="948" y="603" fill="#142033" font-family="Trebuchet MS, Segoe UI, sans-serif" font-size="23" font-weight="700">EDUARDO VENIALGO HOTZ</text>
<text x="1166" y="603" fill="#6C7A89" font-family="Trebuchet MS, Segoe UI, sans-serif" font-size="17">MANUTENCAO</text>
<rect x="1022" y="748" width="208" height="50" rx="16" fill="#FFFFFF" stroke="#DCE4EA"/>
<text x="1066" y="781" fill="#1F5F6B" font-family="Trebuchet MS, Segoe UI, sans-serif" font-size="18" font-weight="700">Ver lista completa</text>
</svg>
