<svg width="1440" height="900" viewBox="0 0 1440 900" fill="none" xmlns="http://www.w3.org/2000/svg">
<rect width="1440" height="900" fill="#101722"/>
<rect x="24" y="24" width="1392" height="852" rx="30" fill="#121C2A"/>
<rect x="56" y="56" width="1328" height="94" rx="20" fill="#182435"/>
<circle cx="92" cy="103" r="8" fill="#2DD4BF"/>
<circle cx="120" cy="103" r="8" fill="#F59E0B"/>
<circle cx="148" cy="103" r="8" fill="#EF4444"/>
<text x="184" y="108" fill="#7B8AA0" font-family="Trebuchet MS, Segoe UI, sans-serif" font-size="16" letter-spacing="3">PAINEL TECNICO</text>
<text x="184" y="134" fill="#F8FAFC" font-family="Trebuchet MS, Segoe UI, sans-serif" font-size="40" font-weight="700">Controle de estoque e movimentos</text>
<rect x="1120" y="78" width="220" height="50" rx="14" fill="#2DD4BF"/>
<text x="1172" y="111" fill="#0F172A" font-family="Trebuchet MS, Segoe UI, sans-serif" font-size="20" font-weight="700">Registrar</text>
<rect x="56" y="182" width="300" height="122" rx="18" fill="#182435"/>
<rect x="376" y="182" width="300" height="122" rx="18" fill="#182435"/>
<rect x="696" y="182" width="300" height="122" rx="18" fill="#182435"/>
<rect x="1016" y="182" width="368" height="122" rx="18" fill="#182435"/>
<text x="84" y="222" fill="#74849A" font-family="Trebuchet MS, Segoe UI, sans-serif" font-size="18">Pecas em estoque</text>
<text x="84" y="274" fill="#F8FAFC" font-family="Trebuchet MS, Segoe UI, sans-serif" font-size="52" font-weight="700">81</text>
<text x="404" y="222" fill="#74849A" font-family="Trebuchet MS, Segoe UI, sans-serif" font-size="18">Funcionarios</text>
<text x="404" y="274" fill="#F8FAFC" font-family="Trebuchet MS, Segoe UI, sans-serif" font-size="52" font-weight="700">17</text>
<text x="724" y="222" fill="#74849A" font-family="Trebuchet MS, Segoe UI, sans-serif" font-size="18">Movimentacoes</text>
<text x="724" y="274" fill="#F8FAFC" font-family="Trebuchet MS, Segoe UI, sans-serif" font-size="52" font-weight="700">37</text>
<text x="1044" y="222" fill="#74849A" font-family="Trebuchet MS, Segoe UI, sans-serif" font-size="18">Alertas de descarte</text>
<text x="1044" y="274" fill="#F97316" font-family="Trebuchet MS, Segoe UI, sans-serif" font-size="52" font-weight="700">5</text>
<rect x="56" y="336" width="824" height="492" rx="22" fill="#182435"/>
<text x="88" y="382" fill="#7B8AA0" font-family="Trebuchet MS, Segoe UI, sans-serif" font-size="16" letter-spacing="3">ESTOQUE</text>
<text x="88" y="414" fill="#F8FAFC" font-family="Trebuchet MS, Segoe UI, sans-serif" font-size="30" font-weight="700">Agrupado por produto</text>
<rect x="88" y="446" width="760" height="72" rx="16" fill="#0F172A" stroke="#223149"/>
<text x="116" y="490" fill="#F8FAFC" font-family="Trebuchet MS, Segoe UI, sans-serif" font-size="28" font-weight="700">Calca</text>
<text x="610" y="490" fill="#91A0B6" font-family="Trebuchet MS, Segoe UI, sans-serif" font-size="22">Total: 40</text>
<text x="764" y="490" fill="#2DD4BF" font-family="Trebuchet MS, Segoe UI, sans-serif" font-size="20">Expandir</text>
<rect x="88" y="536" width="760" height="72" rx="16" fill="#2DD4BF"/>
<text x="116" y="580" fill="#0F172A" font-family="Trebuchet MS, Segoe UI, sans-serif" font-size="28" font-weight="700">Camiseta Manga Curta</text>
<text x="548" y="580" fill="#0F172A" font-family="Trebuchet MS, Segoe UI, sans-serif" font-size="22">Total: 24</text>
<text x="756" y="580" fill="#0F172A" font-family="Trebuchet MS, Segoe UI, sans-serif" font-size="20" font-weight="700">Aberto</text>
<rect x="110" y="624" width="716" height="54" rx="14" fill="#0F172A" stroke="#223149"/>
<text x="136" y="658" fill="#F8FAFC" font-family="Trebuchet MS, Segoe UI, sans-serif" font-size="22" font-weight="700">P</text>
<text x="194" y="658" fill="#91A0B6" font-family="Trebuchet MS, Segoe UI, sans-serif" font-size="20">Estoque 6</text>
<rect x="564" y="638" width="86" height="24" rx="12" fill="#78350F"/>
<text x="588" y="655" fill="#FCD34D" font-family="Trebuchet MS, Segoe UI, sans-serif" font-size="13" font-weight="700">BAIXO</text>
<rect x="666" y="636" width="136" height="28" rx="14" fill="#1F2937"/>
<text x="707" y="655" fill="#F8FAFC" font-family="Trebuchet MS, Segoe UI, sans-serif" font-size="14" font-weight="700">EXCLUIR</text>
<rect x="110" y="692" width="716" height="54" rx="14" fill="#0F172A" stroke="#223149"/>
<text x="136" y="726" fill="#F8FAFC" font-family="Trebuchet MS, Segoe UI, sans-serif" font-size="22" font-weight="700">M</text>
<text x="194" y="726" fill="#91A0B6" font-family="Trebuchet MS, Segoe UI, sans-serif" font-size="20">Estoque 8</text>
<rect x="564" y="706" width="112" height="24" rx="12" fill="#052E2B"/>
<text x="584" y="723" fill="#5EEAD4" font-family="Trebuchet MS, Segoe UI, sans-serif" font-size="13" font-weight="700">SAUDAVEL</text>
<rect x="912" y="336" width="472" height="492" rx="22" fill="#182435"/>
<text x="944" y="382" fill="#7B8AA0" font-family="Trebuchet MS, Segoe UI, sans-serif" font-size="16" letter-spacing="3">EQUIPE</text>
<text x="944" y="414" fill="#F8FAFC" font-family="Trebuchet MS, Segoe UI, sans-serif" font-size="30" font-weight="700">Funcionarios</text>
<rect x="944" y="446" width="408" height="68" rx="16" fill="#0F172A" stroke="#223149"/>
<text x="972" y="488" fill="#F8FAFC" font-family="Trebuchet MS, Segoe UI, sans-serif" font-size="22" font-weight="700">EDUARDO VENIALGO HOTZ</text>
<text x="1202" y="488" fill="#91A0B6" font-family="Trebuchet MS, Segoe UI, sans-serif" font-size="17">MANUTENCAO</text>
<rect x="944" y="530" width="408" height="68" rx="16" fill="#0F172A" stroke="#223149"/>
<text x="972" y="572" fill="#F8FAFC" font-family="Trebuchet MS, Segoe UI, sans-serif" font-size="22" font-weight="700">AMAURI L. O. CAMPOS</text>
<text x="1210" y="572" fill="#91A0B6" font-family="Trebuchet MS, Segoe UI, sans-serif" font-size="17">GERENCIA</text>
<rect x="1034" y="744" width="224" height="50" rx="12" fill="#0F172A" stroke="#223149"/>
<text x="1087" y="777" fill="#2DD4BF" font-family="Trebuchet MS, Segoe UI, sans-serif" font-size="18" font-weight="700">VER LISTA COMPLETA</text>
</svg>
