<svg width="1440" height="900" viewBox="0 0 1440 900" fill="none" xmlns="http://www.w3.org/2000/svg">
<rect width="1440" height="900" fill="#EDE8E1"/>
<rect x="24" y="24" width="1392" height="852" rx="34" fill="#F8F5F0"/>
<rect x="68" y="64" width="1304" height="112" rx="28" fill="#FCFAF7"/>
<line x1="68" y1="176.5" x2="1372" y2="176.5" stroke="#D8CFC1"/>
<text x="104" y="110" fill="#8A7D6A" font-family="Georgia, Trebuchet MS, serif" font-size="16" letter-spacing="3">UNIFORMES TECNICOS</text>
<text x="104" y="148" fill="#1D1B19" font-family="Georgia, Trebuchet MS, serif" font-size="46" font-weight="700">Painel executivo de controle</text>
<rect x="1124" y="88" width="208" height="54" rx="27" fill="#1F1C1A"/>
<text x="1172" y="122" fill="#F7F2EA" font-family="Trebuchet MS, Segoe UI, sans-serif" font-size="19" font-weight="700">Novo lancamento</text>
<rect x="68" y="212" width="302" height="132" rx="24" fill="#FCFAF7"/>
<rect x="390" y="212" width="302" height="132" rx="24" fill="#FCFAF7"/>
<rect x="712" y="212" width="302" height="132" rx="24" fill="#FCFAF7"/>
<rect x="1034" y="212" width="338" height="132" rx="24" fill="#FCFAF7"/>
<line x1="370" y1="234" x2="370" y2="322" stroke="#E4DBCF"/>
<line x1="692" y1="234" x2="692" y2="322" stroke="#E4DBCF"/>
<line x1="1014" y1="234" x2="1014" y2="322" stroke="#E4DBCF"/>
<text x="100" y="252" fill="#8A7D6A" font-family="Trebuchet MS, Segoe UI, sans-serif" font-size="17">Pecas em estoque</text>
<text x="100" y="312" fill="#1D1B19" font-family="Georgia, Trebuchet MS, serif" font-size="56" font-weight="700">81</text>
<text x="422" y="252" fill="#8A7D6A" font-family="Trebuchet MS, Segoe UI, sans-serif" font-size="17">Funcionarios</text>
<text x="422" y="312" fill="#1D1B19" font-family="Georgia, Trebuchet MS, serif" font-size="56" font-weight="700">17</text>
<text x="744" y="252" fill="#8A7D6A" font-family="Trebuchet MS, Segoe UI, sans-serif" font-size="17">Movimentacoes</text>
<text x="744" y="312" fill="#1D1B19" font-family="Georgia, Trebuchet MS, serif" font-size="56" font-weight="700">37</text>
<text x="1066" y="252" fill="#8A7D6A" font-family="Trebuchet MS, Segoe UI, sans-serif" font-size="17">Descartes</text>
<text x="1066" y="312" fill="#7A4F2A" font-family="Georgia, Trebuchet MS, serif" font-size="56" font-weight="700">5</text>
<rect x="68" y="380" width="792" height="460" rx="28" fill="#FCFAF7"/>
<rect x="884" y="380" width="488" height="460" rx="28" fill="#FCFAF7"/>
<text x="104" y="426" fill="#8A7D6A" font-family="Trebuchet MS, Segoe UI, sans-serif" font-size="15" letter-spacing="3">ESTOQUE</text>
<text x="104" y="460" fill="#1D1B19" font-family="Georgia, Trebuchet MS, serif" font-size="30" font-weight="700">Agrupado por tipo</text>
<text x="920" y="426" fill="#8A7D6A" font-family="Trebuchet MS, Segoe UI, sans-serif" font-size="15" letter-spacing="3">FUNCIONARIOS</text>
<text x="920" y="460" fill="#1D1B19" font-family="Georgia, Trebuchet MS, serif" font-size="30" font-weight="700">Quadro resumido</text>
<rect x="104" y="492" width="720" height="76" rx="18" fill="#F4EEE4"/>
<text x="132" y="538" fill="#1D1B19" font-family="Georgia, Trebuchet MS, serif" font-size="28" font-weight="700">Calca</text>
<text x="610" y="538" fill="#7B6E5E" font-family="Trebuchet MS, Segoe UI, sans-serif" font-size="22">Total: 40</text>
<text x="736" y="538" fill="#1D1B19" font-family="Trebuchet MS, Segoe UI, sans-serif" font-size="19" font-weight="700">Expandir</text>
<rect x="104" y="586" width="720" height="78" rx="18" fill="#1F1C1A"/>
<text x="132" y="633" fill="#F7F2EA" font-family="Georgia, Trebuchet MS, serif" font-size="28" font-weight="700">Camiseta Manga Curta</text>
<text x="556" y="633" fill="#CFC4B5" font-family="Trebuchet MS, Segoe UI, sans-serif" font-size="22">Total: 24</text>
<text x="736" y="633" fill="#E0C18A" font-family="Trebuchet MS, Segoe UI, sans-serif" font-size="19" font-weight="700">Aberto</text>
<rect x="124" y="684" width="680" height="56" rx="14" fill="#FAF7F2"/>
<text x="150" y="719" fill="#1D1B19" font-family="Trebuchet MS, Segoe UI, sans-serif" font-size="22" font-weight="700">P</text>
<text x="214" y="719" fill="#7B6E5E" font-family="Trebuchet MS, Segoe UI, sans-serif" font-size="21">Estoque: 6</text>
<rect x="570" y="699" width="104" height="24" rx="12" fill="#E9DDC4"/>
<text x="599" y="716" fill="#7A5A24" font-family="Trebuchet MS, Segoe UI, sans-serif" font-size="13" font-weight="700">Baixo</text>
<rect x="124" y="752" width="680" height="56" rx="14" fill="#FAF7F2"/>
<text x="150" y="787" fill="#1D1B19" font-family="Trebuchet MS, Segoe UI, sans-serif" font-size="22" font-weight="700">M</text>
<text x="214" y="787" fill="#7B6E5E" font-family="Trebuchet MS, Segoe UI, sans-serif" font-size="21">Estoque: 8</text>
<rect x="570" y="767" width="128" height="24" rx="12" fill="#DCE5D4"/>
<text x="592" y="784" fill="#3D5A33" font-family="Trebuchet MS, Segoe UI, sans-serif" font-size="13" font-weight="700">Saudavel</text>
<rect x="920" y="494" width="416" height="72" rx="18" fill="#F4EEE4"/>
<text x="948" y="539" fill="#1D1B19" font-family="Georgia, Trebuchet MS, serif" font-size="24" font-weight="700">AMAURI L. O. CAMPOS</text>
<text x="1198" y="539" fill="#7B6E5E" font-family="Trebuchet MS, Segoe UI, sans-serif" font-size="17">GERENCIA</text>
<rect x="920" y="584" width="416" height="72" rx="18" fill="#F4EEE4"/>
<text x="948" y="629" fill="#1D1B19" font-family="Georgia, Trebuchet MS, serif" font-size="24" font-weight="700">EDUARDO VENIALGO HOTZ</text>
<text x="1166" y="629" fill="#7B6E5E" font-family="Trebuchet MS, Segoe UI, sans-serif" font-size="17">MANUTENCAO</text>
<rect x="1022" y="754" width="214" height="50" rx="25" fill="#F8F5F0" stroke="#D8CFC1"/>
<text x="1068" y="786" fill="#1D1B19" font-family="Trebuchet MS, Segoe UI, sans-serif" font-size="18" font-weight="700">Ver lista completa</text>
</svg>
