<svg width="1440" height="900" viewBox="0 0 1440 900" fill="none" xmlns="http://www.w3.org/2000/svg">
<rect width="1440" height="900" fill="#EEF3F7"/>
<circle cx="1220" cy="96" r="180" fill="#D8E7E8"/>
<circle cx="180" cy="782" r="200" fill="#DCE4F0"/>
<rect x="32" y="28" width="1376" height="844" rx="34" fill="#F9FBFD"/>
<rect x="72" y="72" width="1296" height="104" rx="30" fill="#FFFFFF"/>
<text x="108" y="112" fill="#718096" font-family="Trebuchet MS, Segoe UI, sans-serif" font-size="18" letter-spacing="3">UNIFORMES</text>
<text x="108" y="146" fill="#132033" font-family="Trebuchet MS, Segoe UI, sans-serif" font-size="46" font-weight="700">Painel de controle</text>
<rect x="1094" y="96" width="220" height="56" rx="28" fill="#0F766E"/>
<text x="1140" y="132" fill="#FFFFFF" font-family="Trebuchet MS, Segoe UI, sans-serif" font-size="20" font-weight="700">Novo lancamento</text>
<rect x="72" y="206" width="294" height="138" rx="26" fill="#FFFFFF"/>
<rect x="390" y="206" width="294" height="138" rx="26" fill="#FFFFFF"/>
<rect x="708" y="206" width="294" height="138" rx="26" fill="#FFFFFF"/>
<rect x="1026" y="206" width="342" height="138" rx="26" fill="#FFFFFF"/>
<text x="104" y="250" fill="#7B8797" font-family="Trebuchet MS, Segoe UI, sans-serif" font-size="18">Pecas em estoque</text>
<text x="104" y="312" fill="#132033" font-family="Trebuchet MS, Segoe UI, sans-serif" font-size="56" font-weight="700">81</text>
<text x="422" y="250" fill="#7B8797" font-family="Trebuchet MS, Segoe UI, sans-serif" font-size="18">Funcionarios</text>
<text x="422" y="312" fill="#132033" font-family="Trebuchet MS, Segoe UI, sans-serif" font-size="56" font-weight="700">17</text>
<text x="740" y="250" fill="#7B8797" font-family="Trebuchet MS, Segoe UI, sans-serif" font-size="18">Movimentacoes</text>
<text x="740" y="312" fill="#132033" font-family="Trebuchet MS, Segoe UI, sans-serif" font-size="56" font-weight="700">37</text>
<text x="1058" y="250" fill="#7B8797" font-family="Trebuchet MS, Segoe UI, sans-serif" font-size="18">Descartes</text>
<text x="1058" y="312" fill="#B45309" font-family="Trebuchet MS, Segoe UI, sans-serif" font-size="56" font-weight="700">5</text>
<rect x="72" y="376" width="780" height="452" rx="30" fill="#FFFFFF"/>
<text x="108" y="424" fill="#7B8797" font-family="Trebuchet MS, Segoe UI, sans-serif" font-size="18" letter-spacing="2">ESTOQUE</text>
<text x="108" y="458" fill="#132033" font-family="Trebuchet MS, Segoe UI, sans-serif" font-size="32" font-weight="700">Grupos de uniforme</text>
<rect x="108" y="490" width="708" height="72" rx="22" fill="#F5F8FB"/>
<text x="136" y="534" fill="#132033" font-family="Trebuchet MS, Segoe UI, sans-serif" font-size="28" font-weight="700">Calca</text>
<text x="610" y="534" fill="#6B778C" font-family="Trebuchet MS, Segoe UI, sans-serif" font-size="22">Total: 40</text>
<text x="731" y="534" fill="#0F766E" font-family="Trebuchet MS, Segoe UI, sans-serif" font-size="20">Ver detalhes</text>
<rect x="108" y="580" width="708" height="72" rx="22" fill="#132033"/>
<text x="136" y="624" fill="#FFFFFF" font-family="Trebuchet MS, Segoe UI, sans-serif" font-size="28" font-weight="700">Camiseta Manga Longa</text>
<text x="550" y="624" fill="#D0D9E5" font-family="Trebuchet MS, Segoe UI, sans-serif" font-size="22">Total: 18</text>
<text x="713" y="624" fill="#7DD3C9" font-family="Trebuchet MS, Segoe UI, sans-serif" font-size="20">Ocultar</text>
<rect x="126" y="668" width="672" height="56" rx="18" fill="#F8FBFD"/>
<text x="154" y="703" fill="#132033" font-family="Trebuchet MS, Segoe UI, sans-serif" font-size="24" font-weight="700">GG</text>
<text x="242" y="703" fill="#6B778C" font-family="Trebuchet MS, Segoe UI, sans-serif" font-size="22">Estoque: 3</text>
<rect x="610" y="684" width="106" height="26" rx="13" fill="#FEF3C7"/>
<text x="638" y="702" fill="#92400E" font-family="Trebuchet MS, Segoe UI, sans-serif" font-size="14" font-weight="700">Baixo</text>
<rect x="126" y="734" width="672" height="56" rx="18" fill="#F8FBFD"/>
<text x="154" y="769" fill="#132033" font-family="Trebuchet MS, Segoe UI, sans-serif" font-size="24" font-weight="700">EG</text>
<text x="242" y="769" fill="#6B778C" font-family="Trebuchet MS, Segoe UI, sans-serif" font-size="22">Estoque: 6</text>
<rect x="610" y="750" width="126" height="26" rx="13" fill="#DCFCE7"/>
<text x="630" y="768" fill="#166534" font-family="Trebuchet MS, Segoe UI, sans-serif" font-size="14" font-weight="700">Saudavel</text>
<rect x="884" y="376" width="484" height="452" rx="30" fill="#FFFFFF"/>
<text x="920" y="424" fill="#7B8797" font-family="Trebuchet MS, Segoe UI, sans-serif" font-size="18" letter-spacing="2">PESSOAS</text>
<text x="920" y="458" fill="#132033" font-family="Trebuchet MS, Segoe UI, sans-serif" font-size="32" font-weight="700">Equipe</text>
<rect x="920" y="492" width="412" height="72" rx="22" fill="#F5F8FB"/>
<text x="948" y="536" fill="#132033" font-family="Trebuchet MS, Segoe UI, sans-serif" font-size="24" font-weight="700">AMAURI L. O. CAMPOS</text>
<text x="1200" y="536" fill="#6B778C" font-family="Trebuchet MS, Segoe UI, sans-serif" font-size="18">GERENCIA</text>
<rect x="920" y="582" width="412" height="72" rx="22" fill="#F5F8FB"/>
<text x="948" y="626" fill="#132033" font-family="Trebuchet MS, Segoe UI, sans-serif" font-size="24" font-weight="700">EDUARDO VENIALGO HOTZ</text>
<text x="1178" y="626" fill="#6B778C" font-family="Trebuchet MS, Segoe UI, sans-serif" font-size="18">MANUTENCAO</text>
<rect x="1016" y="740" width="220" height="52" rx="26" fill="#FFFFFF" stroke="#D6E0EA"/>
<text x="1060" y="774" fill="#132033" font-family="Trebuchet MS, Segoe UI, sans-serif" font-size="20" font-weight="700">Ver lista completa</text>
</svg>
